<svg xmlns="http://www.w3.org/2000/svg" height="800" width="1066.667"><path d="M520.921 415.508c-147.874 35.025-223.289-28.767-281.062-107.475 45.4-16.82 89.329-20.146 132.193-13.705-17.368-27.948-27.867-68.133-26.132-130.113 46.152 12.868 84.575 36.113 117.876 66.236 1.652-32.715 18.663-72.967 57.205-123.784 31.13 40.732 48.792 82.206 55.636 124.277 30.691-31.583 70.896-53.284 118.986-66.796-2.482 62.319-11.544 106.855-27.024 129.32 37.274-4.476 80.078-2.501 131.401 13.701-63.288 89.226-147.272 141.487-279.079 108.339zM657.5 326.412c38.717-9.163 66.761-5.4 95.09-1.979-55.077 62.114-112.993 74.02-169.457 72.622 29.831-19.11 56.408-41.083 74.367-70.643zm-368.61-2.135c58.613 67.902 114.426 74.175 169.863 72.126-24.709-11.371-50.656-33.014-78.373-69.354-35.204-8.454-65.28-8.705-91.49-2.772zm243.4 70.391c11.92-17.564 26.337-32.584 43.411-45.167 17.074-12.581 36.806-22.724 59.363-30.532-29.864 39.36-66.248 64.704-102.775 75.699zm-24.695-.383c-13.858-17.472-29.088-33-46.159-45.922-17.072-12.923-35.983-23.24-57.203-30.291 28.791 43.075 64.595 64.27 103.362 76.213zm16.317-3.776c.21-21.19 3.68-41.425 10.232-61.058 6.552-19.635 16.185-38.666 28.721-57.448-3.793 53.478-18.061 92.729-38.953 118.506zm-8.704-1.024c.541-20.006-2.387-39.853-8.807-59.54-6.418-19.686-16.328-39.213-29.749-58.58 1.499 49.748 15.003 88.526 38.556 118.12zm-56.496-70.604c-3.47-18.233-5.59-36.932-4.807-56.624-32.384-32.23-59.214-49.418-77.578-56.57 3.268 33.4 12.548 66.334 29.06 89 18.658 5.781 36.729 13.381 53.325 24.194zm206.021-113.25c-32.766 14.153-57.996 33.59-77.565 57-.335 18.978-2.73 37.356-6.207 55.417 18.564-10.275 36.558-18.444 53.51-23.412 15.113-26.021 24.925-56.157 30.262-89.005zm-144.816 94.43c7.524-16.682 17.278-32.258 28.86-47.246-3.632-35.54-13.908-70.008-27.502-93.784-22.474 34.165-28.202 65.106-28.76 93.668 10.842 15.766 19.761 30.732 27.402 47.362" fill="#fff" fill-rule="evenodd"/><path d="M520.921 415.508c-147.874 35.025-223.289-28.767-281.062-107.475 45.4-16.82 89.329-20.146 132.193-13.705-17.368-27.948-27.867-68.133-26.132-130.113 46.152 12.868 84.575 36.113 117.876 66.236 1.652-32.715 18.663-72.967 57.205-123.784 31.13 40.732 48.792 82.206 55.636 124.277 30.691-31.583 70.896-53.284 118.986-66.796-2.482 62.319-11.544 106.855-27.024 129.32 37.274-4.476 80.078-2.501 131.401 13.701-63.288 89.226-147.272 141.487-279.079 108.339zM657.5 326.412c38.717-9.163 66.761-5.4 95.09-1.979-55.077 62.114-112.993 74.02-169.457 72.622 29.831-19.11 56.408-41.083 74.367-70.643zm-368.61-2.135c58.613 67.902 114.426 74.175 169.863 72.126-24.709-11.371-50.656-33.014-78.373-69.354-35.204-8.454-65.28-8.705-91.49-2.772zm243.4 70.391c11.92-17.564 26.337-32.584 43.411-45.167 17.074-12.581 36.806-22.724 59.363-30.532-29.864 39.36-66.248 64.704-102.775 75.699zm-24.695-.383c-13.858-17.472-29.088-33-46.159-45.922-17.072-12.923-35.983-23.24-57.203-30.291 28.791 43.075 64.595 64.27 103.362 76.213zm16.317-3.776c.21-21.19 3.68-41.425 10.232-61.058 6.552-19.635 16.185-38.666 28.721-57.448-3.793 53.478-18.061 92.729-38.953 118.506zm-8.704-1.024c.541-20.006-2.387-39.853-8.807-59.54-6.418-19.686-16.328-39.213-29.749-58.58 1.499 49.748 15.003 88.526 38.556 118.12zm-56.496-70.604c-3.47-18.233-5.59-36.932-4.807-56.624-32.384-32.23-59.214-49.418-77.578-56.57 3.268 33.4 12.548 66.334 29.06 89 18.658 5.781 36.729 13.381 53.325 24.194zm206.021-113.25c-32.766 14.153-57.996 33.59-77.565 57-.335 18.978-2.73 37.356-6.207 55.417 18.564-10.275 36.558-18.444 53.51-23.412 15.113-26.021 24.925-56.157 30.262-89.005zm-144.816 94.43c7.524-16.682 17.278-32.258 28.86-47.246-3.632-35.54-13.908-70.008-27.502-93.784-22.474 34.165-28.202 65.106-28.76 93.668 10.842 15.766 19.761 30.732 27.402 47.362z" fill="none" stroke="#fff" stroke-width="1.3333" stroke-linejoin="round" stroke-miterlimit="10"/><path d="M336.848 496.88H303.84v13.245h30.3v10.834h-30.3v16.038h34.532v11.215h-47.27v-62.377h45.746v11.045M405.815 485.835h13.033v51.162h30.892v11.215h-43.925v-62.377M527.975 548.212h-12.95v-62.377h12.95v62.377M606.843 528.957c.394 2.85 1.17 4.979 2.328 6.39 2.116 2.568 5.74 3.85 10.874 3.85 3.076 0 5.572-.337 7.491-1.014 3.64-1.299 5.459-3.711 5.459-7.238 0-2.058-.903-3.653-2.708-4.781-1.806-1.1-4.642-2.073-8.506-2.92l-6.601-1.481c-6.49-1.467-10.975-3.06-13.457-4.782-4.204-2.877-6.306-7.377-6.306-13.5 0-5.585 2.031-10.226 6.094-13.922 4.062-3.695 10.029-5.543 17.9-5.543 6.573 0 12.181 1.741 16.821 5.225 4.641 3.486 7.075 8.542 7.3 15.172h-12.525c-.227-3.753-1.863-6.418-4.91-7.998-2.03-1.044-4.556-1.566-7.574-1.566-3.358 0-6.038.678-8.04 2.031-2.004 1.355-3.006 3.244-3.006 5.67 0 2.23.988 3.894 2.963 4.994 1.27.733 3.977 1.595 8.125 2.581l10.748 2.582c4.712 1.129 8.267 2.638 10.664 4.528 3.724 2.934 5.587 7.18 5.587 12.737 0 5.7-2.18 10.432-6.539 14.199-4.358 3.765-10.516 5.649-18.472 5.649-8.124 0-14.514-1.855-19.169-5.565-4.655-3.71-6.983-8.81-6.983-15.298h12.442M758.625 496.88h-33.008v13.245h30.299v10.834h-30.299v16.038h34.531v11.215H712.88v-62.377h45.745v11.045" fill="#fff"/></svg>