<svg xmlns="http://www.w3.org/2000/svg" height="800" width="1066.667"><path d="M54.033 640.127l13.207-33.6h3.593l12.88 33.6h-3.266l-3.874-10.547H61.267L57.3 640.127zm8.307-13.254H75.5l-6.58-17.64-6.58 17.64M117.547 616.28c-.654-2.863-1.867-4.9-3.64-6.113-1.774-1.214-4.09-1.82-6.954-1.82-2.022 0-3.763.404-5.226 1.213a10.555 10.555 0 00-3.617 3.267c-.949 1.369-1.649 2.948-2.1 4.737-.451 1.788-.677 3.679-.677 5.67 0 1.866.195 3.702.584 5.506.388 1.804 1.034 3.415 1.936 4.83.903 1.415 2.116 2.56 3.64 3.43 1.524.87 3.438 1.307 5.74 1.307 1.431 0 2.738-.234 3.92-.7a9.783 9.783 0 003.104-1.936 11.31 11.31 0 002.24-2.918 14.676 14.676 0 001.376-3.686h3.313a20.907 20.907 0 01-1.633 4.597 13.105 13.105 0 01-2.822 3.803c-1.167 1.089-2.583 1.952-4.247 2.59-1.665.638-3.617.956-5.857.956-2.583 0-4.791-.474-6.627-1.422-1.836-.95-3.336-2.234-4.503-3.851-1.166-1.617-2.014-3.492-2.544-5.623-.529-2.132-.793-4.394-.793-6.79 0-3.204.397-5.927 1.19-8.167.794-2.24 1.89-4.068 3.29-5.483a12.427 12.427 0 014.946-3.08c1.898-.638 3.967-.957 6.207-.957 1.711 0 3.305.225 4.784.677 1.478.451 2.784 1.127 3.92 2.03a11.051 11.051 0 012.8 3.337c.731 1.321 1.236 2.853 1.517 4.596h-3.267M132.9 606.527h3.173v20.02c0 4.169.778 7.17 2.334 9.006 1.556 1.836 4.06 2.754 7.513 2.754 1.804 0 3.337-.242 4.597-.723 1.26-.483 2.279-1.213 3.056-2.193.778-.98 1.338-2.202 1.68-3.664.343-1.463.514-3.19.514-5.18v-20.02h3.173v20.953c0 4.387-1.081 7.739-3.243 10.057-2.162 2.318-5.421 3.476-9.777 3.476-4.387 0-7.653-1.182-9.8-3.546-2.147-2.364-3.22-5.694-3.22-9.987v-20.953M171.867 640.127v-33.6h12.273c2.177 0 3.975.249 5.39.746 1.415.498 2.535 1.183 3.36 2.054.825.87 1.4 1.874 1.727 3.01.327 1.135.49 2.326.49 3.57 0 1.866-.382 3.406-1.143 4.62a8.446 8.446 0 01-2.964 2.87c-1.213.7-2.59 1.19-4.13 1.47s-3.087.42-4.643.42h-7.187v14.84zm10.453-17.547c1.493 0 2.83-.093 4.013-.28 1.183-.187 2.186-.536 3.011-1.05a5.209 5.209 0 001.913-2.1c.451-.886.676-2.046.676-3.477 0-2.116-.692-3.717-2.076-4.806-1.385-1.09-3.586-1.634-6.604-1.634h-8.213v13.347h7.28M206.027 606.527h3.173v20.02c0 4.169.777 7.17 2.333 9.006 1.556 1.836 4.06 2.754 7.514 2.754 1.804 0 3.337-.242 4.597-.723 1.26-.483 2.279-1.213 3.056-2.193.777-.98 1.337-2.202 1.68-3.664.343-1.463.513-3.19.513-5.18v-20.02h3.174v20.953c0 4.387-1.082 7.739-3.243 10.057-2.163 2.318-5.421 3.476-9.777 3.476-4.387 0-7.654-1.182-9.8-3.546-2.147-2.364-3.22-5.694-3.22-9.987v-20.953M248.307 610.82h-.094v29.307h-3.173v-33.6h3.593l19.414 29.353h.093v-29.353h3.173v33.6h-3.686l-19.32-29.307M308.133 616.28c-.653-2.863-1.866-4.9-3.64-6.113-1.773-1.214-4.09-1.82-6.953-1.82-2.023 0-3.764.404-5.227 1.213a10.55 10.55 0 00-3.616 3.267c-.949 1.369-1.649 2.948-2.101 4.737-.45 1.788-.676 3.679-.676 5.67 0 1.866.195 3.702.584 5.506.388 1.804 1.033 3.415 1.936 4.83s2.116 2.56 3.64 3.43c1.524.87 3.437 1.307 5.74 1.307 1.43 0 2.737-.234 3.92-.7a9.765 9.765 0 003.103-1.936 11.308 11.308 0 002.241-2.918 14.722 14.722 0 001.376-3.686h3.313a20.949 20.949 0 01-1.633 4.597 13.113 13.113 0 01-2.823 3.803c-1.168 1.089-2.582 1.952-4.246 2.59-1.666.638-3.618.956-5.858.956-2.582 0-4.79-.474-6.626-1.422-1.836-.95-3.336-2.234-4.503-3.851-1.167-1.617-2.015-3.492-2.544-5.623-.53-2.132-.793-4.394-.793-6.79 0-3.204.396-5.927 1.189-8.167s1.89-4.068 3.29-5.483a12.424 12.424 0 014.947-3.08c1.898-.638 3.967-.957 6.207-.957 1.71 0 3.305.225 4.784.677 1.477.451 2.784 1.127 3.92 2.03a11.02 11.02 0 012.799 3.337c.732 1.321 1.237 2.853 1.517 4.596h-3.267M320.407 606.527h24.453v2.706h-10.64v30.894h-3.173v-30.894h-10.64v-2.706M354.893 606.527h3.174v20.02c0 4.169.777 7.17 2.333 9.006 1.556 1.836 4.06 2.754 7.513 2.754 1.804 0 3.338-.242 4.596-.723 1.26-.483 2.28-1.213 3.058-2.193.777-.98 1.337-2.202 1.68-3.664.342-1.463.513-3.19.513-5.18v-20.02h3.173v20.953c0 4.387-1.081 7.739-3.242 10.057-2.163 2.318-5.422 3.476-9.778 3.476-4.386 0-7.653-1.182-9.8-3.546-2.146-2.364-3.22-5.694-3.22-9.987v-20.953M407.02 622.16c1.183 0 2.279-.124 3.29-.373 1.011-.25 1.89-.646 2.637-1.19a5.895 5.895 0 001.773-2.077c.436-.84.653-1.85.653-3.033 0-1.244-.225-2.271-.676-3.08a5.136 5.136 0 00-1.82-1.914c-.762-.466-1.633-.793-2.614-.98a16.292 16.292 0 00-3.056-.28h-10.08v12.927zm-9.893 2.707v15.26h-3.174v-33.6h13.16c3.703 0 6.534.692 8.494 2.077 1.96 1.384 2.94 3.632 2.94 6.743 0 2.116-.428 3.796-1.284 5.04-.855 1.244-2.247 2.302-4.176 3.173.996.343 1.773.84 2.333 1.493.56.654.98 1.4 1.26 2.24.28.84.459 1.727.537 2.66.078.934.132 1.836.163 2.707.03 1.276.085 2.333.164 3.173.077.84.17 1.524.28 2.054.108.529.24.941.396 1.237.156.295.343.52.56.676v.327h-3.5c-.343-.56-.583-1.338-.723-2.334s-.249-2.037-.326-3.126c-.079-1.09-.14-2.147-.187-3.174-.047-1.026-.133-1.866-.257-2.52-.187-.902-.49-1.625-.91-2.169a4.134 4.134 0 00-1.517-1.237 6.534 6.534 0 00-1.983-.56 17.89 17.89 0 00-2.264-.14h-9.986M430.587 640.127v-33.6h22.353v2.706h-19.18v12.134h17.313v2.706H433.76v13.347h19.647v2.707h-22.82M468.947 641.527c0 1.369-.319 2.465-.956 3.29a4.863 4.863 0 01-2.451 1.703v-1.727c.373-.249.73-.59 1.073-1.026.343-.436.514-1.12.514-2.054v-1.586h-1.587v-4.107h3.407v5.507M502.733 630.093c.124 1.494.459 2.762 1.004 3.804.544 1.042 1.244 1.89 2.1 2.543.855.653 1.843 1.128 2.963 1.424 1.12.295 2.317.443 3.593.443 1.494 0 2.784-.187 3.874-.56 1.089-.374 1.976-.879 2.66-1.516a5.965 5.965 0 001.517-2.218c.325-.84.49-1.726.49-2.66 0-1.306-.297-2.364-.887-3.173-.591-.81-1.362-1.47-2.31-1.983-.949-.513-2.038-.926-3.266-1.237-1.23-.31-2.49-.615-3.78-.91a42.356 42.356 0 01-3.78-1.05c-1.23-.404-2.319-.95-3.267-1.633a7.88 7.88 0 01-2.31-2.636c-.591-1.074-.887-2.435-.887-4.084 0-1.151.241-2.271.724-3.36.481-1.09 1.197-2.054 2.146-2.894.948-.84 2.139-1.509 3.57-2.006 1.43-.498 3.08-.747 4.946-.747 1.898 0 3.555.264 4.971.793 1.415.53 2.59 1.252 3.523 2.171a8.926 8.926 0 012.1 3.196c.466 1.213.7 2.504.7 3.873h-3.034c0-1.276-.225-2.38-.676-3.313-.452-.933-1.066-1.696-1.844-2.287a7.87 7.87 0 00-2.66-1.306c-.996-.28-2.022-.42-3.08-.42-1.617 0-2.978.225-4.082.677-1.106.45-1.984 1.033-2.638 1.75a5.921 5.921 0 00-1.353 2.38 5.716 5.716 0 00-.14 2.613c.187 1.089.623 1.96 1.307 2.613.684.653 1.524 1.19 2.52 1.61.996.42 2.092.762 3.29 1.027 1.198.264 2.419.544 3.663.84a37.36 37.36 0 013.616 1.05c1.167.404 2.201.949 3.104 1.633s1.625 1.564 2.17 2.637c.545 1.074.817 2.419.817 4.036 0 3.111-1.074 5.523-3.22 7.234-2.147 1.71-5.164 2.566-9.054 2.566-1.742 0-3.36-.225-4.853-.676-1.493-.452-2.784-1.136-3.873-2.053-1.09-.919-1.936-2.053-2.543-3.407-.607-1.353-.91-2.948-.91-4.784h3.08M535.353 640.127v-33.6h3.174v14.42h19.88v-14.42h3.173v33.6h-3.173v-16.474h-19.88v16.474h-3.174M575.673 640.127v-33.6h3.174v33.6h-3.174M589.907 640.127l13.206-33.6h3.594l12.88 33.6h-3.267l-3.873-10.547H597.14l-3.967 10.547zm8.306-13.254h13.16l-6.58-17.64-6.58 17.64M626.54 606.527h24.453v2.706h-10.64v30.894h-3.173v-30.894h-10.64v-2.706M662.287 630.093c.124 1.494.458 2.762 1.002 3.804.546 1.042 1.246 1.89 2.1 2.543.856.653 1.844 1.128 2.964 1.424 1.12.295 2.318.443 3.594.443 1.493 0 2.784-.187 3.873-.56 1.09-.374 1.976-.879 2.66-1.516a5.965 5.965 0 001.517-2.218c.326-.84.49-1.726.49-2.66 0-1.306-.296-2.364-.887-3.173-.59-.81-1.361-1.47-2.31-1.983-.949-.513-2.038-.926-3.267-1.237a166.61 166.61 0 00-3.779-.91 42.51 42.51 0 01-3.781-1.05c-1.228-.404-2.318-.95-3.267-1.633a7.89 7.89 0 01-2.31-2.636c-.59-1.074-.886-2.435-.886-4.084 0-1.151.241-2.271.723-3.36.482-1.09 1.198-2.054 2.146-2.894.95-.84 2.14-1.509 3.571-2.006 1.43-.498 3.08-.747 4.947-.747 1.897 0 3.554.264 4.969.793 1.416.53 2.59 1.252 3.524 2.171a8.926 8.926 0 012.1 3.196c.467 1.213.7 2.504.7 3.873h-3.033c0-1.276-.226-2.38-.678-3.313-.45-.933-1.065-1.696-1.842-2.287a7.87 7.87 0 00-2.66-1.306c-.996-.28-2.023-.42-3.08-.42-1.618 0-2.979.225-4.084.677-1.104.45-1.983 1.033-2.636 1.75a5.921 5.921 0 00-1.354 2.38 5.716 5.716 0 00-.14 2.613c.187 1.089.623 1.96 1.307 2.613.684.653 1.524 1.19 2.52 1.61.996.42 2.092.762 3.29 1.027 1.198.264 2.42.544 3.663.84a37.36 37.36 0 013.616 1.05c1.167.404 2.202.949 3.104 1.633.903.684 1.626 1.564 2.17 2.637.545 1.074.817 2.419.817 4.036 0 3.111-1.073 5.523-3.22 7.234-2.147 1.71-5.164 2.566-9.053 2.566-1.743 0-3.36-.225-4.854-.676-1.493-.452-2.784-1.136-3.873-2.053a9.436 9.436 0 01-2.544-3.407c-.607-1.353-.91-2.948-.91-4.784h3.08M695 606.527h3.173v20.02c0 4.169.778 7.17 2.334 9.006 1.556 1.836 4.06 2.754 7.513 2.754 1.804 0 3.337-.242 4.596-.723 1.261-.483 2.28-1.213 3.057-2.193.778-.98 1.338-2.202 1.68-3.664.343-1.463.514-3.19.514-5.18v-20.02h3.173v20.953c0 4.387-1.081 7.739-3.244 10.057-2.161 2.318-5.42 3.476-9.776 3.476-4.387 0-7.653-1.182-9.8-3.546-2.147-2.364-3.22-5.694-3.22-9.987v-20.953M738.493 641.527c0 1.369-.318 2.465-.956 3.29a4.863 4.863 0 01-2.45 1.703v-1.727c.373-.249.73-.59 1.073-1.026.343-.436.513-1.12.513-2.054v-1.586h-1.586v-4.107h3.406v5.507M800.187 640.407l-1.774 2.146-4.946-3.826a15.24 15.24 0 01-3.803 1.68c-1.385.404-2.917.606-4.597.606-2.583 0-4.854-.466-6.814-1.4-1.96-.933-3.593-2.201-4.9-3.802-1.306-1.603-2.286-3.47-2.94-5.6-.653-2.132-.98-4.411-.98-6.838 0-2.333.319-4.565.958-6.696.637-2.132 1.593-4.013 2.869-5.646 1.276-1.634 2.885-2.94 4.83-3.92 1.945-.98 4.223-1.471 6.837-1.471 2.364 0 4.518.39 6.464 1.167 1.944.777 3.608 1.913 4.993 3.406 1.384 1.494 2.457 3.344 3.22 5.554.761 2.209 1.143 4.744 1.143 7.606 0 2.738-.42 5.274-1.26 7.607-.84 2.333-2.1 4.324-3.78 5.973zm-6.814-5.274c1.431-1.369 2.49-3.088 3.174-5.156.684-2.069 1.026-4.27 1.026-6.604 0-2.52-.318-4.713-.956-6.58-.638-1.866-1.517-3.429-2.637-4.689a10.63 10.63 0 00-3.967-2.824c-1.524-.623-3.189-.933-4.993-.933-2.147 0-4.005.42-5.576 1.26-1.572.84-2.863 1.96-3.873 3.36-1.012 1.4-1.759 3.002-2.24 4.806a21.573 21.573 0 00-.724 5.6c0 1.991.241 3.89.724 5.694.481 1.804 1.228 3.39 2.24 4.76 1.01 1.369 2.301 2.457 3.873 3.266 1.57.81 3.46 1.214 5.67 1.214 1.182 0 2.255-.132 3.22-.396.963-.266 1.85-.631 2.66-1.098l-3.827-2.94 1.68-2.193 4.526 3.453M813.86 640.127v-33.6h3.173v33.6h-3.173M863.887 625.473v-2.706h14.373v17.36h-2.707v-5.74a16.202 16.202 0 01-2.029 2.73 11.227 11.227 0 01-2.637 2.1c-.996.575-2.147 1.019-3.454 1.33-1.306.31-2.784.466-4.433.466-2.116 0-4.076-.373-5.88-1.12a12.579 12.579 0 01-4.667-3.336c-1.306-1.478-2.325-3.337-3.056-5.577-.732-2.24-1.097-4.853-1.097-7.84 0-2.457.31-4.752.933-6.883.623-2.132 1.579-3.982 2.871-5.553 1.29-1.572 2.908-2.808 4.853-3.71 1.944-.903 4.239-1.354 6.883-1.354 1.773 0 3.43.217 4.97.653a13.163 13.163 0 014.154 1.984 11.925 11.925 0 013.103 3.314c.84 1.321 1.446 2.885 1.82 4.689h-3.267a9.858 9.858 0 00-1.423-3.36 9.661 9.661 0 00-2.404-2.496 10.84 10.84 0 00-3.126-1.54 12.008 12.008 0 00-3.594-.537c-2.209 0-4.106.389-5.693 1.166a10.441 10.441 0 00-3.92 3.291c-1.027 1.415-1.781 3.11-2.263 5.087-.482 1.974-.724 4.145-.724 6.509 0 1.867.272 3.64.818 5.32.544 1.68 1.337 3.157 2.38 4.433a11.397 11.397 0 003.826 3.034c1.508.746 3.227 1.12 5.156 1.12.903 0 1.836-.102 2.8-.303a11.005 11.005 0 002.8-1.004 10.777 10.777 0 002.52-1.82c.778-.747 1.447-1.664 2.007-2.753.53-1.058.895-2.163 1.097-3.314.202-1.15.319-2.364.35-3.64h-11.34M890.067 623.373c0-2.457.334-4.76 1.004-6.906.668-2.147 1.656-4.022 2.962-5.623 1.307-1.603 2.924-2.87 4.854-3.804 1.929-.933 4.153-1.4 6.673-1.4 2.613 0 4.908.459 6.884 1.377 1.975.918 3.624 2.178 4.947 3.78 1.321 1.602 2.317 3.484 2.986 5.647.668 2.161 1.003 4.472 1.003 6.93 0 2.426-.335 4.705-1.003 6.837-.669 2.13-1.657 3.997-2.964 5.6-1.306 1.601-2.94 2.869-4.9 3.802-1.96.934-4.23 1.4-6.813 1.4-2.583 0-4.853-.466-6.813-1.4-1.96-.933-3.594-2.201-4.9-3.802-1.307-1.603-2.287-3.47-2.94-5.6-.654-2.132-.98-4.411-.98-6.838zm15.68 14.934c2.177 0 4.052-.412 5.624-1.236 1.57-.826 2.861-1.922 3.873-3.291 1.01-1.37 1.757-2.956 2.24-4.76.481-1.804.723-3.687.723-5.647 0-2.333-.288-4.425-.863-6.276-.576-1.852-1.408-3.43-2.497-4.737a10.707 10.707 0 00-3.967-2.987c-1.556-.684-3.297-1.026-5.227-1.026-2.146 0-4.005.42-5.576 1.26-1.572.84-2.862 1.952-3.873 3.337-1.012 1.384-1.759 2.979-2.24 4.783a21.757 21.757 0 00-.724 5.646c0 1.991.241 3.89.724 5.694.481 1.804 1.228 3.39 2.24 4.76 1.01 1.369 2.301 2.457 3.873 3.266 1.571.81 3.46 1.214 5.67 1.214M936.313 610.82h-.093v29.307h-3.173v-33.6h3.593l19.413 29.353h.094v-29.353h3.173v33.6h-3.687l-19.32-29.307M986.573 625.473v-2.706h14.374v17.36h-2.707v-5.74a16.202 16.202 0 01-2.03 2.73 11.227 11.227 0 01-2.637 2.1c-.996.575-2.146 1.019-3.453 1.33-1.307.31-2.784.466-4.433.466-2.116 0-4.076-.373-5.88-1.12a12.579 12.579 0 01-4.667-3.336c-1.307-1.478-2.325-3.337-3.056-5.577-.732-2.24-1.097-4.853-1.097-7.84 0-2.457.31-4.752.933-6.883.623-2.132 1.579-3.982 2.87-5.553 1.291-1.572 2.909-2.808 4.854-3.71 1.944-.903 4.239-1.354 6.883-1.354 1.773 0 3.43.217 4.97.653a13.163 13.163 0 014.154 1.984 11.925 11.925 0 013.102 3.314c.84 1.321 1.447 2.885 1.82 4.689h-3.266a9.858 9.858 0 00-1.423-3.36 9.661 9.661 0 00-2.404-2.496 10.84 10.84 0 00-3.127-1.54 12.008 12.008 0 00-3.593-.537c-2.21 0-4.107.389-5.693 1.166a10.441 10.441 0 00-3.92 3.291c-1.027 1.415-1.782 3.11-2.263 5.087-.483 1.974-.724 4.145-.724 6.509 0 1.867.272 3.64.817 5.32.544 1.68 1.338 3.157 2.38 4.433a11.397 11.397 0 003.827 3.034c1.508.746 3.227 1.12 5.156 1.12.903 0 1.836-.102 2.8-.303a11.005 11.005 0 002.8-1.004 10.777 10.777 0 002.52-1.82c.777-.747 1.447-1.664 2.007-2.753.529-1.058.894-2.163 1.097-3.314.201-1.15.319-2.364.35-3.64h-11.34" fill="#fff"/><path d="M520.921 415.508c-147.874 35.025-223.289-28.767-281.062-107.475 45.4-16.82 89.329-20.146 132.193-13.705-17.368-27.948-27.867-68.133-26.132-130.113 46.152 12.868 84.575 36.113 117.876 66.236 1.652-32.715 18.663-72.967 57.205-123.784 31.13 40.732 48.792 82.206 55.636 124.277 30.691-31.583 70.896-53.284 118.986-66.796-2.482 62.319-11.544 106.855-27.024 129.32 37.274-4.476 80.078-2.501 131.401 13.701-63.288 89.226-147.272 141.487-279.079 108.339zM657.5 326.412c38.717-9.163 66.761-5.4 95.09-1.979-55.077 62.114-112.993 74.02-169.457 72.622 29.831-19.11 56.408-41.083 74.367-70.643zm-368.61-2.135c58.613 67.902 114.426 74.175 169.863 72.126-24.709-11.371-50.656-33.014-78.373-69.354-35.204-8.454-65.28-8.705-91.49-2.772zm243.4 70.391c11.92-17.564 26.337-32.584 43.411-45.167 17.074-12.581 36.806-22.724 59.363-30.532-29.864 39.36-66.248 64.704-102.775 75.699zm-24.695-.383c-13.858-17.472-29.088-33-46.159-45.922-17.072-12.923-35.983-23.24-57.203-30.291 28.791 43.075 64.595 64.27 103.362 76.213zm16.317-3.776c.21-21.19 3.68-41.425 10.232-61.058 6.552-19.635 16.185-38.666 28.721-57.448-3.793 53.478-18.061 92.729-38.953 118.506zm-8.704-1.024c.541-20.006-2.387-39.853-8.807-59.54-6.418-19.686-16.328-39.213-29.749-58.58 1.499 49.748 15.003 88.526 38.556 118.12zm-56.496-70.604c-3.47-18.233-5.59-36.932-4.807-56.624-32.384-32.23-59.214-49.418-77.578-56.57 3.268 33.4 12.548 66.334 29.06 89 18.658 5.781 36.729 13.381 53.325 24.194zm206.021-113.25c-32.766 14.153-57.996 33.59-77.565 57-.335 18.978-2.73 37.356-6.207 55.417 18.564-10.275 36.558-18.444 53.51-23.412 15.113-26.021 24.925-56.157 30.262-89.005zm-144.816 94.43c7.524-16.682 17.278-32.258 28.86-47.246-3.632-35.54-13.908-70.008-27.502-93.784-22.474 34.165-28.202 65.106-28.76 93.668 10.842 15.766 19.761 30.732 27.402 47.362" fill="#fff" fill-rule="evenodd"/><path d="M520.921 415.508c-147.874 35.025-223.289-28.767-281.062-107.475 45.4-16.82 89.329-20.146 132.193-13.705-17.368-27.948-27.867-68.133-26.132-130.113 46.152 12.868 84.575 36.113 117.876 66.236 1.652-32.715 18.663-72.967 57.205-123.784 31.13 40.732 48.792 82.206 55.636 124.277 30.691-31.583 70.896-53.284 118.986-66.796-2.482 62.319-11.544 106.855-27.024 129.32 37.274-4.476 80.078-2.501 131.401 13.701-63.288 89.226-147.272 141.487-279.079 108.339zM657.5 326.412c38.717-9.163 66.761-5.4 95.09-1.979-55.077 62.114-112.993 74.02-169.457 72.622 29.831-19.11 56.408-41.083 74.367-70.643zm-368.61-2.135c58.613 67.902 114.426 74.175 169.863 72.126-24.709-11.371-50.656-33.014-78.373-69.354-35.204-8.454-65.28-8.705-91.49-2.772zm243.4 70.391c11.92-17.564 26.337-32.584 43.411-45.167 17.074-12.581 36.806-22.724 59.363-30.532-29.864 39.36-66.248 64.704-102.775 75.699zm-24.695-.383c-13.858-17.472-29.088-33-46.159-45.922-17.072-12.923-35.983-23.24-57.203-30.291 28.791 43.075 64.595 64.27 103.362 76.213zm16.317-3.776c.21-21.19 3.68-41.425 10.232-61.058 6.552-19.635 16.185-38.666 28.721-57.448-3.793 53.478-18.061 92.729-38.953 118.506zm-8.704-1.024c.541-20.006-2.387-39.853-8.807-59.54-6.418-19.686-16.328-39.213-29.749-58.58 1.499 49.748 15.003 88.526 38.556 118.12zm-56.496-70.604c-3.47-18.233-5.59-36.932-4.807-56.624-32.384-32.23-59.214-49.418-77.578-56.57 3.268 33.4 12.548 66.334 29.06 89 18.658 5.781 36.729 13.381 53.325 24.194zm206.021-113.25c-32.766 14.153-57.996 33.59-77.565 57-.335 18.978-2.73 37.356-6.207 55.417 18.564-10.275 36.558-18.444 53.51-23.412 15.113-26.021 24.925-56.157 30.262-89.005zm-144.816 94.43c7.524-16.682 17.278-32.258 28.86-47.246-3.632-35.54-13.908-70.008-27.502-93.784-22.474 34.165-28.202 65.106-28.76 93.668 10.842 15.766 19.761 30.732 27.402 47.362z" fill="none" stroke="#fff" stroke-width="1.3333" stroke-linejoin="round" stroke-miterlimit="10"/><path d="M336.848 496.88H303.84v13.245h30.3v10.834h-30.3v16.038h34.532v11.215h-47.27v-62.377h45.746v11.045M405.815 485.835h13.033v51.162h30.892v11.215h-43.925v-62.377M527.975 548.212h-12.95v-62.377h12.95v62.377M606.843 528.957c.394 2.85 1.17 4.979 2.328 6.39 2.116 2.568 5.74 3.85 10.874 3.85 3.076 0 5.572-.337 7.491-1.014 3.64-1.299 5.459-3.711 5.459-7.238 0-2.058-.903-3.653-2.708-4.781-1.806-1.1-4.642-2.073-8.506-2.92l-6.601-1.481c-6.49-1.467-10.975-3.06-13.457-4.782-4.204-2.877-6.306-7.377-6.306-13.5 0-5.585 2.031-10.226 6.094-13.922 4.062-3.695 10.029-5.543 17.9-5.543 6.573 0 12.181 1.741 16.821 5.225 4.641 3.486 7.075 8.542 7.3 15.172h-12.525c-.227-3.753-1.863-6.418-4.91-7.998-2.03-1.044-4.556-1.566-7.574-1.566-3.358 0-6.038.678-8.04 2.031-2.004 1.355-3.006 3.244-3.006 5.67 0 2.23.988 3.894 2.963 4.994 1.27.733 3.977 1.595 8.125 2.581l10.748 2.582c4.712 1.129 8.267 2.638 10.664 4.528 3.724 2.934 5.587 7.18 5.587 12.737 0 5.7-2.18 10.432-6.539 14.199-4.358 3.765-10.516 5.649-18.472 5.649-8.124 0-14.514-1.855-19.169-5.565-4.655-3.71-6.983-8.81-6.983-15.298h12.442M758.625 496.88h-33.008v13.245h30.299v10.834h-30.299v16.038h34.531v11.215H712.88v-62.377h45.745v11.045" fill="#fff"/></svg>